<?xml version="1.0" encoding="UTF-8"?>
<!DOCTYPE svg PUBLIC "-//W3C//DTD SVG 1.1//EN" "http://www.w3.org/Graphics/SVG/1.1/DTD/svg11.dtd">
<!-- Creator: CorelDRAW 2020 (64 Bit) -->
<svg xmlns="http://www.w3.org/2000/svg" xml:space="preserve" width="23.2195mm" height="15.4799mm" version="1.1" style="shape-rendering:geometricPrecision; text-rendering:geometricPrecision; image-rendering:optimizeQuality; fill-rule:evenodd; clip-rule:evenodd"
viewBox="0 0 2027.97 1352"
 xmlns:xlink="http://www.w3.org/1999/xlink"
 xmlns:xodm="http://www.corel.com/coreldraw/odm/2003">
 <defs>
  <style type="text/css">
   <![CDATA[
    .fil0 {fill:#037FFF;fill-rule:nonzero}
   ]]>
  </style>
 </defs>
 <g id="Camada_x0020_1">
  <metadata id="CorelCorpID_0Corel-Layer"/>
  <path class="fil0" d="M0.16 1351.97l507.09 0c-2.37,-552.79 253.07,-312.4 253.07,-752.14 0,-169.74 -110.79,-261.84 -253.32,-261.84 -210.56,0 -357.09,201.36 -157.67,577.89 65.5,123.72 -69.71,153.11 -215.06,186.67 -125.89,29.07 -134.26,90.57 -134.26,197.14l0.16 52.32 0 -0.03zm1732.09 -591.5c-163.26,0 -295.74,132.42 -295.74,295.73 0,163.32 132.51,295.74 295.74,295.74 163.23,0 295.73,-132.42 295.73,-295.74 0,-163.32 -132.5,-295.73 -295.73,-295.73zm126.72 337.99l-84.47 0 0 84.51 -84.5 0 0 -84.51 -84.5 0 0 -84.5 84.5 0 0 -84.51 84.5 0.03 0 84.5 84.47 -0.03 0 84.5zm-406.77 253.51l-775.93 0 -0.26 -70.04c0,-141.86 11.25,-223.84 178.98,-262.55 189.54,-43.78 376.69,-82.9 286.8,-248.85 -266.67,-491.79 -76.14,-770.53 210.23,-770.53 343.06,0 410.42,348.05 260.66,667.8 -166.64,51.45 -288.89,205.16 -288.89,388.44 0,116.6 49.76,221.29 128.44,295.73l-0.03 0z"/>
 </g>
</svg>
